<svg aria-hidden="true" xmlns="http://www.w3.org/2000/svg" xmlns:xlink="http://www.w3.org/1999/xlink">

<symbol viewBox="0 0 22 30" id="place" xmlns="http://www.w3.org/2000/svg">
	<path d="M10.7931 0C4.85381 0 0 4.8537 0 10.7931C0 15.9661 8.11085 26.9508 10.2818 29.7606C10.5374 30.0798 11.0482 30.0798 11.3037 29.7606C13.4752 26.9506 21.5856 15.9661 21.5856 10.7931C21.5858 4.85381 16.7321 0 10.793 0H10.7931ZM10.7931 17.6263C7.02524 17.6263 3.89586 14.5609 3.89586 10.7291C3.89586 6.89726 7.02524 3.89585 10.7931 3.89585C14.561 3.89585 17.6904 6.9613 17.6904 10.7931C17.6904 14.6249 14.561 17.6263 10.7931 17.6263Z"/>
</symbol>


<symbol viewBox="0 0 19 13" id="arrow-slider" xmlns="http://www.w3.org/2000/svg">
	<path d="M6.20562 0.195511C6.46447 -0.0651703 6.89527 -0.0651703 7.16316 0.195511C7.42201 0.447385 7.42201 0.866588 7.16316 1.11788L2.30787 5.84243H18.3297C18.7031 5.84301 19 6.13188 19 6.4953C19 6.85873 18.7031 7.15699 18.3297 7.15699H2.30787L7.16316 11.8727C7.42201 12.1334 7.42201 12.5532 7.16316 12.8045C6.89527 13.0652 6.46386 13.0652 6.20562 12.8045L0.20092 6.96148C-0.0669746 6.7096 -0.0669746 6.2904 0.20092 6.03911L6.20562 0.195511Z" />
</symbol>

<symbol viewBox="0 0 19 13" id="arrow-slider-right" xmlns="http://www.w3.org/2000/svg">
	<path d="M12.7944 0.195511C12.5355 -0.0651703 12.1047 -0.0651703 11.8368 0.195511C11.578 0.447385 11.578 0.866588 11.8368 1.11788L16.6921 5.84243H0.67034C0.296856 5.84301 0 6.13188 0 6.4953C0 6.85873 0.296856 7.15699 0.67034 7.15699H16.6921L11.8368 11.8727C11.578 12.1334 11.578 12.5532 11.8368 12.8045C12.1047 13.0652 12.5361 13.0652 12.7944 12.8045L18.7991 6.96148C19.067 6.7096 19.067 6.2904 18.7991 6.03911L12.7944 0.195511Z"/>
</symbol>

<symbol viewBox="0 0 38 38" id="circle" xmlns="http://www.w3.org/2000/svg">
	<circle cx="19" cy="19" r="19" fill="#F85E0B"/>
<path d="M27 20.6714H20.6911V27H17.3089V20.6714H11V17.3286H17.3089V11H20.6911V17.3286H27V20.6714Z" fill="#F6F7FA"/>
</symbol>

<symbol viewBox="0 0 38 38" id="minus" xmlns="http://www.w3.org/2000/svg">
	<circle cx="19" cy="19" r="19" fill="#F85E0B"/>
<rect x="11" y="17" width="16" height="3.7" fill="#F6F7FA"/>
</symbol>

</svg>